<svg xmlns="http://www.w3.org/2000/svg" xmlns:xlink="http://www.w3.org/1999/xlink"><symbol id="icon-arr-left" viewBox="0 0 15.969 13.938"><path d="M15.107 5.973a1 1 0 01.853 1 .955.955 0 01-.853 1H3.369l4.407 4.4a.991.991 0 01-.1 1.275.975.975 0 01-1.288.111L.448 7.836a1.039 1.039 0 01-.1-1.625L6.384.191a1.071 1.071 0 011.341.136.86.86 0 01.1 1.2L3.369 5.973h11.738z" fill-rule="evenodd"/></symbol><symbol id="icon-arr-right" viewBox="0 0 16 14"><path d="M.862 8.027a1 1 0 01-.853-1 .955.955 0 01.853-1H12.6l-4.407-4.4a.991.991 0 01.1-1.275.975.975 0 011.288-.113l5.94 5.925a1.039 1.039 0 01.1 1.625l-6.036 6.02a1.071 1.071 0 01-1.337-.136.86.86 0 01-.1-1.2L12.6 8.027H.862z" fill-rule="evenodd"/></symbol><symbol id="icon-boost" viewBox="0 0 18 18"><path d="M17.999 7.12h-6.78l2.74-2.82c-2.73-2.7-7.15-2.8-9.88-.1a6.875 6.875 0 000 9.79 7.02 7.02 0 009.88 0c1.36-1.34 2.04-2.91 2.04-4.89h2c0 1.98-.88 4.55-2.64 6.29-3.51 3.48-9.21 3.48-12.72 0-3.5-3.47-3.53-9.11-.02-12.58a8.987 8.987 0 0112.65 0L17.999 0v7.12zM9.499 5v4.25l3.5 2.08-.72 1.21L7.999 10V5h1.5z"/></symbol><symbol id="icon-checked" viewBox="0 0 20 20"><path d="M10 0C4.48 0 0 4.48 0 10s4.48 10 10 10 10-4.48 10-10S15.52 0 10 0zM9 14l-4-4 1.41-1.41L9 11.17l5.59-5.59L16 7l-7 7z"/></symbol><symbol id="icon-close" viewBox="0 0 14 14"><path data-name="Прямоугольник, скругл. углы 1" d="M8.485 6.88l5.228 5.228a.969.969 0 01-1.371 1.371L7.114 8.251l-5.32 5.32a.965.965 0 11-1.365-1.365l5.32-5.32L.52 1.657A.969.969 0 011.891.287L7.12 5.515 12.206.429a.965.965 0 111.365 1.365z" fill-rule="evenodd"/></symbol><symbol id="icon-down" viewBox="0 0 10 6"><path d="M5.012 3.61S7.591 1.026 8.274.335a.975.975 0 111.419 1.338L5.957 5.45a1.124 1.124 0 01-1.915 0L.283 1.65A.994.994 0 011.749.311z" fill-rule="evenodd"/></symbol><symbol id="icon-email" viewBox="0 0 20 16"><path d="M17.644 16C19.52 16 20 15.049 20 13.542V2.072C20 .718 19.207 0 17.644 0H1.971A1.959 1.959 0 000 2.12v11.856A1.908 1.908 0 002.019 16h15.625zM1.971 3.952v10.072h16.058V4.048S12.084 8.8 11.25 9.446s-1.051.7-1.923.048c-.689-.517-7.356-5.542-7.356-5.542zm.673-1.976l7.6 5.735 7.211-5.735H2.644z" fill-rule="evenodd"/></symbol><symbol id="icon-flag" viewBox="0 0 16 18"><path d="M1.5 17.5a1 1 0 01-1-1v-15a1 1 0 011-1h6.38a1 1 0 01.9.55L9.5 2.5h5a1 1 0 011 1v8a1 1 0 01-1 1H9.11a1 1 0 01-.89-.55L7.5 10.5h-5v6a1 1 0 01-1 1zm1-15v6h6l1 2h4v-6h-5l-1-2h-5z"/></symbol><symbol id="icon-geo" viewBox="0 0 14 19"><path d="M7 19a29.77 29.77 0 01-3.5-3.53C1.9 13.557 0 10.711 0 8A7 7 0 0111.952 3.05 6.955 6.955 0 0114 8c0 2.712-1.9 5.558-3.5 7.47A29.769 29.769 0 017 19zM7 3a5.006 5.006 0 00-5 5c0 1.166.527 3.185 3.035 6.186A27.96 27.96 0 007 16.3a28.122 28.122 0 001.966-2.11C11.473 11.183 12 9.164 12 8a5.006 5.006 0 00-5-5zm0 8a3 3 0 110-6 3 3 0 010 6z"/></symbol><symbol id="icon-go" viewBox="0 0 20 20"><path d="M20 10c0-5.52-4.48-10-10-10S0 4.48 0 10s4.48 10 10 10 10-4.48 10-10zm-9 1H5V9h6V6l4 4-4 4v-3z"/></symbol><symbol id="icon-grow" viewBox="0 0 22 18"><path d="M20 0H2C.89 0 0 .89 0 2v12a2 2 0 002 2h6l-2 1v1h10v-1l-2-1h6c1.1 0 1.99-.9 1.99-2L22 2a2 2 0 00-2-2zm0 13H2V2h18v11z"/><path d="M13 5l1.145 1.145-2.44 2.44-2-2L6 10.295l.705.705 3-3 2 2 3.15-3.145L16 8V5h-3z"/></symbol><symbol id="icon-menu" viewBox="0 0 24 16"><path d="M0 0h24v2H0V0zm0 7h24v2H0V7zm0 7h24v2H0v-2z" fill-rule="evenodd"/></symbol><symbol id="icon-minus" viewBox="0 0 19 3"><path d="M19 0v3H0V0h19z"/></symbol><symbol id="icon-phone" viewBox="0 0 19.969 20"><path d="M2.717 0h1.652c3.5 0 3.6.87 4.608 3.333a4.649 4.649 0 01.669 2.854 3.265 3.265 0 01-.454 1.127c-.282.408-1.128.93-1 1.655a9.6 9.6 0 002.246 2.59c.911.7 1.661-.377 2.222-.767a3.28 3.28 0 011-.432 3.013 3.013 0 011.41.024c.936.261 3.528 1.257 4.038 1.871a3.707 3.707 0 01.741 1.319 7.03 7.03 0 01.1 1.8c0 1.848-.018 3.158-1.027 3.957-1.563 1.236-5.168.482-6.929-.12A17.039 17.039 0 011.044 8.777C.489 7.354-.601 3.144.375 1.487A3.061 3.061 0 012.069.12zm0 2.014c-.777.413-.848 1.129-.648 2.303a20.157 20.157 0 00.956 4.077 14.966 14.966 0 009.367 8.849 17.352 17.352 0 003.56.719 2.913 2.913 0 001.649-.144 1.036 1.036 0 00.335-.527 19.379 19.379 0 00-.048-3.309 1.147 1.147 0 00-.573-.575c-.507-.223-2.74-1.236-3.274-1.079a2.244 2.244 0 00-.717.528 3.216 3.216 0 01-2.844.887 5.328 5.328 0 01-2.533-1.87l-.956-.935a3.3 3.3 0 01-.454-3.477 8.252 8.252 0 001.126-1.538 2.573 2.573 0 00-.454-1.654c-.259-.631-.452-1.716-.98-2.087-.502-.353-2.647-.174-3.512-.168z" fill-rule="evenodd"/></symbol><symbol id="icon-play" viewBox="0 0 31 31"><path d="M0-.009L31.009 15.5 0 31.009V-.009z" fill-rule="evenodd"/></symbol><symbol id="icon-plus" viewBox="0 0 19 19"><path d="M8 0h3v8h8v3h-8v8H8v-8H0V8h8V0z"/></symbol><symbol id="icon-share" viewBox="0 0 20 21"><path d="M15.5 21a3.46 3.46 0 01-3.383-4.352l-6.26-3.578a3.494 3.494 0 11.576-4.47l5.683-3.249A3.494 3.494 0 0112 4.5a3.531 3.531 0 111.142 2.57l-6.151 3.515c-.006.26-.042.517-.108.768l6.259 3.577A3.495 3.495 0 1115.5 21zm0-5a1.5 1.5 0 100 3 1.5 1.5 0 000-3zm-12-7a1.5 1.5 0 100 3 1.5 1.5 0 000-3zm12-6a1.5 1.5 0 100 3 1.5 1.5 0 000-3z"/></symbol><symbol id="icon-shield" viewBox="0 0 18 22"><path d="M9 0L0 4v6c0 5.55 3.84 10.74 9 12 5.16-1.26 9-6.45 9-12V4L9 0zm2.5 11.59l.9 3.88L9 13.42l-3.4 2.05.9-3.87-3-2.59 3.96-.34L9 5.02l1.54 3.64L14.5 9l-3 2.59z"/></symbol><symbol id="icon-side" viewBox="0 0 5 21"><circle cx="2.5" cy="2.5" r="2.5"/><circle cx="2.5" cy="10.5" r="2.5"/><circle cx="2.5" cy="18.5" r="2.5"/></symbol><symbol id="icon-soc-fb" viewBox="0 0 32 32"><g clip-path="url(#clip0_1702_7136)"><path d="M32 16c0-8.837-7.163-16-16-16S0 7.163 0 16c0 7.986 5.85 14.605 13.5 15.806V20.625H9.437V16H13.5v-3.525c0-4.01 2.389-6.225 6.043-6.225 1.75 0 3.582.313 3.582.313V10.5h-2.017c-1.988 0-2.608 1.233-2.608 2.5v3h4.438l-.71 4.625H18.5v11.18C26.15 30.606 32 23.986 32 16z"/></g><defs><clipPath id="clip0_1702_7136"><path d="M0 0h32v32H0z"/></clipPath></defs></symbol><symbol id="icon-soc-inst" viewBox="0 0 32 32"><g clip-path="url(#clip0_1702_7138)"><path d="M16 2.881c4.275 0 4.781.019 6.462.094 1.563.069 2.407.331 2.97.55a4.949 4.949 0 011.837 1.194 4.921 4.921 0 011.194 1.837c.218.563.48 1.413.55 2.969.074 1.688.093 2.194.093 6.463 0 4.274-.019 4.78-.094 6.462-.068 1.563-.33 2.406-.55 2.969a4.95 4.95 0 01-1.193 1.837 4.922 4.922 0 01-1.838 1.194c-.562.219-1.412.481-2.969.55-1.687.075-2.193.094-6.462.094-4.275 0-4.781-.019-6.463-.094-1.562-.069-2.406-.331-2.968-.55a4.949 4.949 0 01-1.838-1.194 4.922 4.922 0 01-1.193-1.837c-.22-.563-.482-1.413-.55-2.969-.075-1.688-.094-2.194-.094-6.462 0-4.275.018-4.782.093-6.463.07-1.563.332-2.406.55-2.969A4.948 4.948 0 014.732 4.72 4.921 4.921 0 016.57 3.525c.562-.219 1.412-.481 2.968-.55C11.22 2.9 11.726 2.881 16 2.881zM16 0c-4.344 0-4.887.019-6.594.094-1.7.075-2.869.35-3.881.744-1.056.412-1.95.956-2.838 1.85-.893.887-1.437 1.78-1.85 2.83C.444 6.539.17 7.7.094 9.4.019 11.113 0 11.656 0 16c0 4.344.019 4.887.094 6.594.075 1.7.35 2.868.744 3.881.412 1.056.956 1.95 1.85 2.837a7.822 7.822 0 002.83 1.844c1.02.394 2.182.669 3.882.744 1.706.075 2.25.094 6.594.094 4.343 0 4.887-.019 6.593-.094 1.7-.075 2.87-.35 3.882-.744a7.822 7.822 0 002.831-1.843 7.822 7.822 0 001.844-2.832c.394-1.019.669-2.181.744-3.881.074-1.706.093-2.25.093-6.594s-.019-4.887-.094-6.594c-.075-1.7-.35-2.868-.743-3.88a7.494 7.494 0 00-1.831-2.845A7.82 7.82 0 0026.48.845C25.462.45 24.3.175 22.6.1 20.887.019 20.344 0 16 0z"/><path d="M16 7.781A8.22 8.22 0 007.781 16 8.22 8.22 0 0016 24.219 8.22 8.22 0 0024.219 16 8.22 8.22 0 0016 7.781zm0 13.55a5.332 5.332 0 11.001-10.664A5.332 5.332 0 0116 21.331zM26.462 7.456a1.92 1.92 0 11-3.838 0 1.92 1.92 0 013.838 0z"/></g><defs><clipPath id="clip0_1702_7138"><path d="M0 0h32v32H0z"/></clipPath></defs></symbol><symbol id="icon-soc-phone" viewBox="0 0 18 18"><path d="M16.782 8.755c-.13-2.056-.922-3.801-2.377-5.236-1.455-1.434-3.222-2.211-5.3-2.332V0a9.071 9.071 0 013.38.783 9.357 9.357 0 012.78 1.894 9.332 9.332 0 011.917 2.745c.48 1.04.748 2.151.804 3.333h-1.204zm-4.423 0a3.728 3.728 0 00-1.087-2.14 3.702 3.702 0 00-2.168-1.053V4.375c1.184.114 2.19.58 3.02 1.395.83.816 1.31 1.811 1.44 2.985h-1.205zM16.826 18c-1.974 0-3.96-.5-5.959-1.499a21.178 21.178 0 01-5.412-3.873A20.793 20.793 0 011.52 7.303C.507 5.337 0 3.38 0 1.434c0-.33.112-.606.335-.826.224-.22.503-.33.838-.33h3.031c.27 0 .507.086.708.258.202.172.332.405.392.697l.635 2.812c.042.258.036.492-.019.702-.054.211-.158.385-.312.524L3.106 7.682C4.124 9.351 5.252 10.79 6.492 12a18.94 18.94 0 004.285 3.12l2.399-2.452c.176-.192.375-.325.594-.4.22-.075.448-.087.685-.034l2.576.559c.29.059.525.195.703.408.177.213.266.469.266.767v2.876c0 .33-.112.606-.335.826-.224.22-.503.331-.838.331z"/><path d="M16.782 8.755c-.13-2.056-.922-3.801-2.377-5.236-1.455-1.434-3.222-2.211-5.3-2.332V0a9.071 9.071 0 013.38.783 9.357 9.357 0 012.78 1.894 9.332 9.332 0 011.917 2.745c.48 1.04.748 2.151.804 3.333h-1.204zm-4.423 0a3.728 3.728 0 00-1.087-2.14 3.702 3.702 0 00-2.168-1.053V4.375c1.184.114 2.19.58 3.02 1.395.83.816 1.31 1.811 1.44 2.985h-1.205zM16.826 18c-1.974 0-3.96-.5-5.959-1.499a21.178 21.178 0 01-5.412-3.873A20.793 20.793 0 011.52 7.303C.507 5.337 0 3.38 0 1.434c0-.33.112-.606.335-.826.224-.22.503-.33.838-.33h3.031c.27 0 .507.086.708.258.202.172.332.405.392.697l.635 2.812c.042.258.036.492-.019.702-.054.211-.158.385-.312.524L3.106 7.682C4.124 9.351 5.252 10.79 6.492 12a18.94 18.94 0 004.285 3.12l2.399-2.452c.176-.192.375-.325.594-.4.22-.075.448-.087.685-.034l2.576.559c.29.059.525.195.703.408.177.213.266.469.266.767v2.876c0 .33-.112.606-.335.826-.224.22-.503.331-.838.331z"/></symbol><symbol id="icon-soc-tgm" viewBox="0 0 32 32"><g clip-path="url(#clip0_1702_7143)"><path fill-rule="evenodd" clip-rule="evenodd" d="M32 16c0 8.837-7.163 16-16 16S0 24.837 0 16 7.163 0 16 0s16 7.163 16 16zm-15.427-4.188c-1.556.647-4.666 1.987-9.33 4.02-.758.3-1.155.595-1.19.883-.062.487.548.679 1.378.94l.35.111c.817.266 1.916.576 2.487.589.519.01 1.097-.203 1.736-.641 4.357-2.942 6.607-4.429 6.748-4.461.1-.023.238-.051.332.032.093.083.084.24.074.283-.06.258-2.454 2.483-3.693 3.634-.386.36-.66.614-.716.672-.125.13-.253.254-.376.372-.759.732-1.328 1.28.032 2.176.653.43 1.176.787 1.698 1.142.57.388 1.137.775 1.872 1.257.188.123.367.25.54.374.664.473 1.26.898 1.995.83.428-.04.87-.441 1.094-1.64.53-2.834 1.572-8.974 1.812-11.504a2.822 2.822 0 00-.026-.63.674.674 0 00-.228-.433c-.192-.155-.488-.188-.62-.186-.602.01-1.525.332-5.969 2.18z"/></g><defs><clipPath id="clip0_1702_7143"><path d="M0 0h32v32H0z"/></clipPath></defs></symbol><symbol id="icon-soc-wapp" viewBox="0 0 18 18"><path fill-rule="evenodd" clip-rule="evenodd" d="M15.377 2.616A8.926 8.926 0 009.037 0C4.099 0 .078 4.001.076 8.92a8.864 8.864 0 001.197 4.46L0 18l4.751-1.24a8.984 8.984 0 004.283 1.084h.004c4.939 0 8.96-4 8.962-8.92a8.845 8.845 0 00-2.623-6.308zm-2.254 8.17c-.223-.11-1.325-.65-1.53-.724-.204-.075-.354-.112-.503.111-.15.224-.579.723-.71.874-.13.15-.26.167-.484.055-.224-.111-.946-.346-1.802-1.106-.665-.59-1.115-1.32-1.245-1.543-.13-.223-.014-.344.098-.455.1-.1.224-.26.336-.39.112-.13.15-.224.224-.373.074-.148.037-.278-.019-.39-.056-.111-.504-1.208-.69-1.655-.182-.435-.367-.375-.504-.382a9.133 9.133 0 00-.43-.008.824.824 0 00-.597.279c-.205.223-.783.763-.783 1.859s.803 2.157.914 2.305c.11.15 1.58 2.4 3.825 3.366.418.179.844.335 1.277.47.537.169 1.025.145 1.41.087.43-.063 1.326-.539 1.512-1.06.186-.52.187-.966.131-1.059-.056-.093-.205-.149-.43-.26z"/><path fill-rule="evenodd" clip-rule="evenodd" d="M15.377 2.616A8.926 8.926 0 009.037 0C4.099 0 .078 4.001.076 8.92a8.864 8.864 0 001.197 4.46L0 18l4.751-1.24a8.984 8.984 0 004.283 1.084h.004c4.939 0 8.96-4 8.962-8.92a8.845 8.845 0 00-2.623-6.308zm-2.254 8.17c-.223-.11-1.325-.65-1.53-.724-.204-.075-.354-.112-.503.111-.15.224-.579.723-.71.874-.13.15-.26.167-.484.055-.224-.111-.946-.346-1.802-1.106-.665-.59-1.115-1.32-1.245-1.543-.13-.223-.014-.344.098-.455.1-.1.224-.26.336-.39.112-.13.15-.224.224-.373.074-.148.037-.278-.019-.39-.056-.111-.504-1.208-.69-1.655-.182-.435-.367-.375-.504-.382a9.133 9.133 0 00-.43-.008.824.824 0 00-.597.279c-.205.223-.783.763-.783 1.859s.803 2.157.914 2.305c.11.15 1.58 2.4 3.825 3.366.418.179.844.335 1.277.47.537.169 1.025.145 1.41.087.43-.063 1.326-.539 1.512-1.06.186-.52.187-.966.131-1.059-.056-.093-.205-.149-.43-.26z"/></symbol><symbol id="icon-star-fill" viewBox="0 0 21 20"><path d="M20.282 7.179l-6.326-.918L11.12.539a.718.718 0 00-.62-.516.717.717 0 00-.617.516L7.05 6.261l-6.326.918a.655.655 0 00-.706.579.957.957 0 00.315.6l4.587 4.455L3.837 19.1a2.011 2.011 0 00-.025.252.74.74 0 00.132.447.459.459 0 00.4.182 1.073 1.073 0 00.5-.151l5.656-2.967 5.658 2.968a1.021 1.021 0 00.5.151.446.446 0 00.384-.182.74.74 0 00.132-.447 1.93 1.93 0 00-.013-.252l-1.084-6.288 4.583-4.452a.909.909 0 00.328-.6.655.655 0 00-.706-.578z" fill-rule="evenodd"/></symbol><symbol id="icon-star" viewBox="0 0 21 20"><path d="M20.282 7.179l-6.326-.918L11.12.539a.718.718 0 00-.62-.516.717.717 0 00-.617.516L7.05 6.261l-6.326.918a.655.655 0 00-.706.579.957.957 0 00.315.6l4.587 4.455L3.837 19.1a2.011 2.011 0 00-.025.252.74.74 0 00.132.447.459.459 0 00.4.182 1.073 1.073 0 00.5-.151l5.656-2.967 5.658 2.968a1.021 1.021 0 00.5.151.446.446 0 00.384-.182.74.74 0 00.132-.447 1.93 1.93 0 00-.013-.252l-1.084-6.288 4.583-4.452a.909.909 0 00.328-.6.655.655 0 00-.706-.578zM6.891 12.255L3.2 8.736l5.068-.719 2.256-4.645 2.211 4.645 5.011.745-3.633 3.494.816 4.961-4.429-2.342-4.584 2.469z" fill-rule="evenodd"/></symbol><symbol id="icon-starry" viewBox="0 0 20 20"><path d="M9.99 0C4.47 0 0 4.48 0 10s4.47 10 9.99 10C15.52 20 20 15.52 20 10S15.52 0 9.99 0zm4.24 16L10 13.45 5.77 16l1.12-4.81-3.73-3.23 4.92-.42L10 3l1.92 4.53 4.92.42-3.73 3.23L14.23 16z"/><path d="M9.99 0C4.47 0 0 4.48 0 10s4.47 10 9.99 10C15.52 20 20 15.52 20 10S15.52 0 9.99 0zm4.24 16L10 13.45 5.77 16l1.12-4.81-3.73-3.23 4.92-.42L10 3l1.92 4.53 4.92.42-3.73 3.23L14.23 16z"/></symbol><symbol id="icon-tgm" viewBox="0 0 18 16"><path d="M17.949 1.456l-2.717 13.578c-.205.958-.739 1.197-1.498.746l-4.14-3.233-1.996 2.036c-.222.235-.406.43-.832.43l.297-4.467 7.671-7.347c.334-.315-.073-.49-.518-.175l-9.483 6.33L.65 7.999c-.888-.294-.904-.941.185-1.393L16.804.086c.739-.295 1.386.173 1.145 1.37z"/><path d="M17.949 1.456l-2.717 13.578c-.205.958-.739 1.197-1.498.746l-4.14-3.233-1.996 2.036c-.222.235-.406.43-.832.43l.297-4.467 7.671-7.347c.334-.315-.073-.49-.518-.175l-9.483 6.33L.65 7.999c-.888-.294-.904-.941.185-1.393L16.804.086c.739-.295 1.386.173 1.145 1.37z"/></symbol><symbol id="icon-timer" viewBox="0 0 20 20"><path d="M10 20C4.477 20 0 15.523 0 10S4.477 0 10 0s10 4.477 10 10c-.006 5.52-4.48 9.994-10 10zm0-18a8 8 0 108 8 8.009 8.009 0 00-8-8zm5 9H9V5h2v4h4v2z"/></symbol><symbol id="icon-trade" viewBox="0 0 21 19"><path d="M1.235 16.9l1.34.56V8.43l-2.43 5.86c-.41 1.02.08 2.19 1.09 2.61zm19.5-3.7l-4.96-11.97A2.013 2.013 0 0013.965 0c-.26 0-.53.04-.79.15L5.805 3.2a1.999 1.999 0 00-1.08 2.6l4.96 11.97a1.998 1.998 0 002.6 1.08l7.36-3.05a1.994 1.994 0 001.09-2.6zM6.585 6c-.55 0-1-.45-1-1s.45-1 1-1 1 .45 1 1-.45 1-1 1zm-2 11c0 1.1.9 2 2 2h1.45l-3.45-8.34V17z"/></symbol><symbol id="icon-trash" viewBox="0 0 21 24"><path d="M19.874 5.935h-1.182V21.7A2.279 2.279 0 0116.44 24H4.532a2.279 2.279 0 01-2.252-2.3V5.935H1.126A1.139 1.139 0 010 4.783v-.029A1.139 1.139 0 011.126 3.6h3.547V2.3A2.279 2.279 0 016.925 0h7.15a2.279 2.279 0 012.252 2.3v1.3h3.547A1.139 1.139 0 0121 4.754v.029a1.139 1.139 0 01-1.126 1.152zm-3.519 0H4.617v15.674h11.738V5.935zM8.093 8.442h.085a1.151 1.151 0 011.14 1.152v8.413a1.151 1.151 0 01-1.14 1.152h-.085a1.128 1.128 0 01-1.112-1.152V9.594a1.128 1.128 0 011.112-1.152zm4.715 0h.085a1.14 1.14 0 011.126 1.152v8.413a1.14 1.14 0 01-1.126 1.152h-.085a1.139 1.139 0 01-1.126-1.152V9.594a1.139 1.139 0 011.126-1.152zM6.981 2.391h7.009V3.6H6.981V2.391z" fill-rule="evenodd"/></symbol><symbol id="icon-user" viewBox="0 0 18 20"><path d="M8.39 13.013c3.892-.063 6.954 1.04 8.582 3.265.415.568 1.5 2.419.765 3.385a1.072 1.072 0 01-1.578-.024 3.073 3.073 0 01-.239-1.1 2.986 2.986 0 00-.454-.984 7 7 0 00-4.35-2.355l-1.888-.192-1.554.1c-2.3.406-4.3.989-5.307 2.665-.289.479-.236 1.453-.55 1.873a1.072 1.072 0 01-1.578.024c-.647-.86.2-2.559.574-3.121a8.34 8.34 0 015.116-3.193l1.771-.295zm.685-13A6.012 6.012 0 113.09 6.026 6 6 0 019.075.015zm-.039 2.076a3.938 3.938 0 11-3.92 3.938 3.929 3.929 0 013.92-3.938z" fill-rule="evenodd"/></symbol><symbol id="icon-wallet" viewBox="0 0 19 18"><path d="M18 15v1c0 1.1-.9 2-2 2H2a2 2 0 01-2-2V2a2 2 0 012-2h14c1.1 0 2 .9 2 2v1H9a2 2 0 00-2 2v8a2 2 0 002 2h9zm-9-2h10V5H9v8zm4-2.5c-.83 0-1.5-.67-1.5-1.5s.67-1.5 1.5-1.5 1.5.67 1.5 1.5-.67 1.5-1.5 1.5z"/></symbol><symbol id="icon-worker" viewBox="0 0 22 16"><path d="M5.32 9.01c.96.02 1.85.5 2.45 1.34A3.961 3.961 0 0011 12c1.29 0 2.5-.62 3.23-1.66.6-.84 1.49-1.32 2.45-1.34-.72-1.22-3.6-2-5.68-2-2.07 0-4.96.78-5.68 2.01zM3 9c1.66 0 3-1.34 3-3S4.66 3 3 3 0 4.34 0 6s1.34 3 3 3zM19 9c1.66 0 3-1.34 3-3s-1.34-3-3-3-3 1.34-3 3 1.34 3 3 3zM11 6c1.66 0 3-1.34 3-3s-1.34-3-3-3-3 1.34-3 3 1.34 3 3 3z"/><path d="M20 10h-3.27c-.77 0-1.35.45-1.68.92-.04.06-1.36 2.08-4.05 2.08-1.43 0-3.03-.64-4.05-2.08-.39-.55-1-.92-1.68-.92H2c-1.1 0-2 .9-2 2v4h7v-2.26c1.15.8 2.54 1.26 4 1.26s2.85-.46 4-1.26V16h7v-4c0-1.1-.9-2-2-2z"/></symbol><symbol id="icon-zoom" viewBox="0 0 20 20"><path d="M8 2a6 6 0 100 12A6 6 0 008 2zM0 8a8 8 0 1114.32 4.906l5.387 5.387a1 1 0 01-1.414 1.414l-5.387-5.387A8 8 0 010 8z"/></symbol> <view id="icon-arr-left-view-orange" viewBox="0 0 15.969 13.938"/><view id="icon-arr-left-view-white" viewBox="0 23.938000000000002 15.969 13.938"/><view id="icon-arr-left-view-black" viewBox="0 47.876000000000005 15.969 13.938"/><view id="icon-arr-left-view-blue" viewBox="0 71.81400000000001 15.969 13.938"/><view id="icon-arr-right-view-orange" viewBox="0 95.75200000000001 16 14"/><view id="icon-arr-right-view-white" viewBox="0 119.75200000000001 16 14"/><view id="icon-arr-right-view-black" viewBox="0 143.752 16 14"/><view id="icon-arr-right-view-blue" viewBox="0 167.752 16 14"/><view id="icon-boost-view-orange" viewBox="0 191.752 18 18"/><view id="icon-boost-view-white" viewBox="0 219.752 18 18"/><view id="icon-boost-view-black" viewBox="0 247.752 18 18"/><view id="icon-boost-view-blue" viewBox="0 275.752 18 18"/><view id="icon-checked-view-orange" viewBox="0 303.752 20 20"/><view id="icon-checked-view-white" viewBox="0 333.752 20 20"/><view id="icon-checked-view-black" viewBox="0 363.752 20 20"/><view id="icon-checked-view-blue" viewBox="0 393.752 20 20"/><view id="icon-close-view-orange" viewBox="0 423.752 14 14"/><view id="icon-close-view-white" viewBox="0 447.752 14 14"/><view id="icon-close-view-black" viewBox="0 471.752 14 14"/><view id="icon-close-view-blue" viewBox="0 495.752 14 14"/><view id="icon-down-view-orange" viewBox="0 519.752 10 6"/><view id="icon-down-view-white" viewBox="0 535.752 10 6"/><view id="icon-down-view-black" viewBox="0 551.752 10 6"/><view id="icon-down-view-blue" viewBox="0 567.752 10 6"/><view id="icon-email-view-orange" viewBox="0 583.752 20 16"/><view id="icon-email-view-white" viewBox="0 609.752 20 16"/><view id="icon-email-view-black" viewBox="0 635.752 20 16"/><view id="icon-email-view-blue" viewBox="0 661.752 20 16"/><view id="icon-flag-view-orange" viewBox="0 687.752 16 18"/><view id="icon-flag-view-white" viewBox="0 715.752 16 18"/><view id="icon-flag-view-black" viewBox="0 743.752 16 18"/><view id="icon-flag-view-blue" viewBox="0 771.752 16 18"/><view id="icon-geo-view-orange" viewBox="0 799.752 14 19"/><view id="icon-geo-view-white" viewBox="0 828.752 14 19"/><view id="icon-geo-view-black" viewBox="0 857.752 14 19"/><view id="icon-geo-view-blue" viewBox="0 886.752 14 19"/><view id="icon-go-view-orange" viewBox="0 915.752 20 20"/><view id="icon-go-view-white" viewBox="0 945.752 20 20"/><view id="icon-go-view-black" viewBox="0 975.752 20 20"/><view id="icon-go-view-blue" viewBox="0 1005.752 20 20"/><view id="icon-grow-view-orange" viewBox="0 1035.752 22 18"/><view id="icon-grow-view-white" viewBox="0 1063.752 22 18"/><view id="icon-grow-view-black" viewBox="0 1091.752 22 18"/><view id="icon-grow-view-blue" viewBox="0 1119.752 22 18"/><view id="icon-menu-view-orange" viewBox="0 1147.752 24 16"/><view id="icon-menu-view-white" viewBox="0 1173.752 24 16"/><view id="icon-menu-view-black" viewBox="0 1199.752 24 16"/><view id="icon-menu-view-blue" viewBox="0 1225.752 24 16"/><view id="icon-minus-view-orange" viewBox="0 1251.752 19 3"/><view id="icon-minus-view-white" viewBox="0 1264.752 19 3"/><view id="icon-minus-view-black" viewBox="0 1277.752 19 3"/><view id="icon-minus-view-blue" viewBox="0 1290.752 19 3"/><view id="icon-phone-view-orange" viewBox="0 1303.752 19.969 20"/><view id="icon-phone-view-white" viewBox="0 1333.752 19.969 20"/><view id="icon-phone-view-black" viewBox="0 1363.752 19.969 20"/><view id="icon-phone-view-blue" viewBox="0 1393.752 19.969 20"/><view id="icon-play-view-orange" viewBox="0 1423.752 31 31"/><view id="icon-play-view-white" viewBox="0 1464.752 31 31"/><view id="icon-play-view-black" viewBox="0 1505.752 31 31"/><view id="icon-play-view-blue" viewBox="0 1546.752 31 31"/><view id="icon-plus-view-orange" viewBox="0 1587.752 19 19"/><view id="icon-plus-view-white" viewBox="0 1616.752 19 19"/><view id="icon-plus-view-black" viewBox="0 1645.752 19 19"/><view id="icon-plus-view-blue" viewBox="0 1674.752 19 19"/><view id="icon-share-view-orange" viewBox="0 1703.752 20 21"/><view id="icon-share-view-white" viewBox="0 1734.752 20 21"/><view id="icon-share-view-black" viewBox="0 1765.752 20 21"/><view id="icon-share-view-blue" viewBox="0 1796.752 20 21"/><view id="icon-shield-view-orange" viewBox="0 1827.752 18 22"/><view id="icon-shield-view-white" viewBox="0 1859.752 18 22"/><view id="icon-shield-view-black" viewBox="0 1891.752 18 22"/><view id="icon-shield-view-blue" viewBox="0 1923.752 18 22"/><view id="icon-side-view-orange" viewBox="0 1955.752 5 21"/><view id="icon-side-view-white" viewBox="0 1986.752 5 21"/><view id="icon-side-view-black" viewBox="0 2017.752 5 21"/><view id="icon-side-view-blue" viewBox="0 2048.752 5 21"/><view id="icon-soc-fb-view-orange" viewBox="0 2079.752 32 32"/><view id="icon-soc-fb-view-white" viewBox="0 2121.752 32 32"/><view id="icon-soc-fb-view-black" viewBox="0 2163.752 32 32"/><view id="icon-soc-fb-view-blue" viewBox="0 2205.752 32 32"/><view id="icon-soc-inst-view-orange" viewBox="0 2247.752 32 32"/><view id="icon-soc-inst-view-white" viewBox="0 2289.752 32 32"/><view id="icon-soc-inst-view-black" viewBox="0 2331.752 32 32"/><view id="icon-soc-inst-view-blue" viewBox="0 2373.752 32 32"/><view id="icon-soc-phone-view-orange" viewBox="0 2415.752 18 18"/><view id="icon-soc-phone-view-white" viewBox="0 2443.752 18 18"/><view id="icon-soc-phone-view-black" viewBox="0 2471.752 18 18"/><view id="icon-soc-phone-view-blue" viewBox="0 2499.752 18 18"/><view id="icon-soc-tgm-view-orange" viewBox="0 2527.752 32 32"/><view id="icon-soc-tgm-view-white" viewBox="0 2569.752 32 32"/><view id="icon-soc-tgm-view-black" viewBox="0 2611.752 32 32"/><view id="icon-soc-tgm-view-blue" viewBox="0 2653.752 32 32"/><view id="icon-soc-wapp-view-orange" viewBox="0 2695.752 18 18"/><view id="icon-soc-wapp-view-white" viewBox="0 2723.752 18 18"/><view id="icon-soc-wapp-view-black" viewBox="0 2751.752 18 18"/><view id="icon-soc-wapp-view-blue" viewBox="0 2779.752 18 18"/><view id="icon-star-fill-view-orange" viewBox="0 2807.752 21 20"/><view id="icon-star-fill-view-white" viewBox="0 2837.752 21 20"/><view id="icon-star-fill-view-black" viewBox="0 2867.752 21 20"/><view id="icon-star-fill-view-blue" viewBox="0 2897.752 21 20"/><view id="icon-star-view-orange" viewBox="0 2927.752 21 20"/><view id="icon-star-view-white" viewBox="0 2957.752 21 20"/><view id="icon-star-view-black" viewBox="0 2987.752 21 20"/><view id="icon-star-view-blue" viewBox="0 3017.752 21 20"/><view id="icon-starry-view-orange" viewBox="0 3047.752 20 20"/><view id="icon-starry-view-white" viewBox="0 3077.752 20 20"/><view id="icon-starry-view-black" viewBox="0 3107.752 20 20"/><view id="icon-starry-view-blue" viewBox="0 3137.752 20 20"/><view id="icon-tgm-view-orange" viewBox="0 3167.752 18 16"/><view id="icon-tgm-view-white" viewBox="0 3193.752 18 16"/><view id="icon-tgm-view-black" viewBox="0 3219.752 18 16"/><view id="icon-tgm-view-blue" viewBox="0 3245.752 18 16"/><view id="icon-timer-view-orange" viewBox="0 3271.752 20 20"/><view id="icon-timer-view-white" viewBox="0 3301.752 20 20"/><view id="icon-timer-view-black" viewBox="0 3331.752 20 20"/><view id="icon-timer-view-blue" viewBox="0 3361.752 20 20"/><view id="icon-trade-view-orange" viewBox="0 3391.752 21 19"/><view id="icon-trade-view-white" viewBox="0 3420.752 21 19"/><view id="icon-trade-view-black" viewBox="0 3449.752 21 19"/><view id="icon-trade-view-blue" viewBox="0 3478.752 21 19"/><view id="icon-trash-view-orange" viewBox="0 3507.752 21 24"/><view id="icon-trash-view-white" viewBox="0 3541.752 21 24"/><view id="icon-trash-view-black" viewBox="0 3575.752 21 24"/><view id="icon-trash-view-blue" viewBox="0 3609.752 21 24"/><view id="icon-user-view-orange" viewBox="0 3643.752 18 20"/><view id="icon-user-view-white" viewBox="0 3673.752 18 20"/><view id="icon-user-view-black" viewBox="0 3703.752 18 20"/><view id="icon-user-view-blue" viewBox="0 3733.752 18 20"/><view id="icon-wallet-view-orange" viewBox="0 3763.752 19 18"/><view id="icon-wallet-view-white" viewBox="0 3791.752 19 18"/><view id="icon-wallet-view-black" viewBox="0 3819.752 19 18"/><view id="icon-wallet-view-blue" viewBox="0 3847.752 19 18"/><view id="icon-worker-view-orange" viewBox="0 3875.752 22 16"/><view id="icon-worker-view-white" viewBox="0 3901.752 22 16"/><view id="icon-worker-view-black" viewBox="0 3927.752 22 16"/><view id="icon-worker-view-blue" viewBox="0 3953.752 22 16"/><view id="icon-zoom-view-orange" viewBox="0 3979.752 20 20"/><view id="icon-zoom-view-white" viewBox="0 4009.752 20 20"/><view id="icon-zoom-view-black" viewBox="0 4039.752 20 20"/><view id="icon-zoom-view-blue" viewBox="0 4069.752 20 20"/> <use xlink:href="#icon-arr-left" x="0" y="0" width="15.969" height="13.938" style="fill:#F55D3E"/><use xlink:href="#icon-arr-left" x="0" y="23.938000000000002" width="15.969" height="13.938" style="fill:#ffffff"/><use xlink:href="#icon-arr-left" x="0" y="47.876000000000005" width="15.969" height="13.938" style="fill:#000000"/><use xlink:href="#icon-arr-left" x="0" y="71.81400000000001" width="15.969" height="13.938" style="fill:#343C88"/><use xlink:href="#icon-arr-right" x="0" y="95.75200000000001" width="16" height="14" style="fill:#F55D3E"/><use xlink:href="#icon-arr-right" x="0" y="119.75200000000001" width="16" height="14" style="fill:#ffffff"/><use xlink:href="#icon-arr-right" x="0" y="143.752" width="16" height="14" style="fill:#000000"/><use xlink:href="#icon-arr-right" x="0" y="167.752" width="16" height="14" style="fill:#343C88"/><use xlink:href="#icon-boost" x="0" y="191.752" width="18" height="18" style="fill:#F55D3E"/><use xlink:href="#icon-boost" x="0" y="219.752" width="18" height="18" style="fill:#ffffff"/><use xlink:href="#icon-boost" x="0" y="247.752" width="18" height="18" style="fill:#000000"/><use xlink:href="#icon-boost" x="0" y="275.752" width="18" height="18" style="fill:#343C88"/><use xlink:href="#icon-checked" x="0" y="303.752" width="20" height="20" style="fill:#F55D3E"/><use xlink:href="#icon-checked" x="0" y="333.752" width="20" height="20" style="fill:#ffffff"/><use xlink:href="#icon-checked" x="0" y="363.752" width="20" height="20" style="fill:#000000"/><use xlink:href="#icon-checked" x="0" y="393.752" width="20" height="20" style="fill:#343C88"/><use xlink:href="#icon-close" x="0" y="423.752" width="14" height="14" style="fill:#F55D3E"/><use xlink:href="#icon-close" x="0" y="447.752" width="14" height="14" style="fill:#ffffff"/><use xlink:href="#icon-close" x="0" y="471.752" width="14" height="14" style="fill:#000000"/><use xlink:href="#icon-close" x="0" y="495.752" width="14" height="14" style="fill:#343C88"/><use xlink:href="#icon-down" x="0" y="519.752" width="10" height="6" style="fill:#F55D3E"/><use xlink:href="#icon-down" x="0" y="535.752" width="10" height="6" style="fill:#ffffff"/><use xlink:href="#icon-down" x="0" y="551.752" width="10" height="6" style="fill:#000000"/><use xlink:href="#icon-down" x="0" y="567.752" width="10" height="6" style="fill:#343C88"/><use xlink:href="#icon-email" x="0" y="583.752" width="20" height="16" style="fill:#F55D3E"/><use xlink:href="#icon-email" x="0" y="609.752" width="20" height="16" style="fill:#ffffff"/><use xlink:href="#icon-email" x="0" y="635.752" width="20" height="16" style="fill:#000000"/><use xlink:href="#icon-email" x="0" y="661.752" width="20" height="16" style="fill:#343C88"/><use xlink:href="#icon-flag" x="0" y="687.752" width="16" height="18" style="fill:#F55D3E"/><use xlink:href="#icon-flag" x="0" y="715.752" width="16" height="18" style="fill:#ffffff"/><use xlink:href="#icon-flag" x="0" y="743.752" width="16" height="18" style="fill:#000000"/><use xlink:href="#icon-flag" x="0" y="771.752" width="16" height="18" style="fill:#343C88"/><use xlink:href="#icon-geo" x="0" y="799.752" width="14" height="19" style="fill:#F55D3E"/><use xlink:href="#icon-geo" x="0" y="828.752" width="14" height="19" style="fill:#ffffff"/><use xlink:href="#icon-geo" x="0" y="857.752" width="14" height="19" style="fill:#000000"/><use xlink:href="#icon-geo" x="0" y="886.752" width="14" height="19" style="fill:#343C88"/><use xlink:href="#icon-go" x="0" y="915.752" width="20" height="20" style="fill:#F55D3E"/><use xlink:href="#icon-go" x="0" y="945.752" width="20" height="20" style="fill:#ffffff"/><use xlink:href="#icon-go" x="0" y="975.752" width="20" height="20" style="fill:#000000"/><use xlink:href="#icon-go" x="0" y="1005.752" width="20" height="20" style="fill:#343C88"/><use xlink:href="#icon-grow" x="0" y="1035.752" width="22" height="18" style="fill:#F55D3E"/><use xlink:href="#icon-grow" x="0" y="1063.752" width="22" height="18" style="fill:#ffffff"/><use xlink:href="#icon-grow" x="0" y="1091.752" width="22" height="18" style="fill:#000000"/><use xlink:href="#icon-grow" x="0" y="1119.752" width="22" height="18" style="fill:#343C88"/><use xlink:href="#icon-menu" x="0" y="1147.752" width="24" height="16" style="fill:#F55D3E"/><use xlink:href="#icon-menu" x="0" y="1173.752" width="24" height="16" style="fill:#ffffff"/><use xlink:href="#icon-menu" x="0" y="1199.752" width="24" height="16" style="fill:#000000"/><use xlink:href="#icon-menu" x="0" y="1225.752" width="24" height="16" style="fill:#343C88"/><use xlink:href="#icon-minus" x="0" y="1251.752" width="19" height="3" style="fill:#F55D3E"/><use xlink:href="#icon-minus" x="0" y="1264.752" width="19" height="3" style="fill:#ffffff"/><use xlink:href="#icon-minus" x="0" y="1277.752" width="19" height="3" style="fill:#000000"/><use xlink:href="#icon-minus" x="0" y="1290.752" width="19" height="3" style="fill:#343C88"/><use xlink:href="#icon-phone" x="0" y="1303.752" width="19.969" height="20" style="fill:#F55D3E"/><use xlink:href="#icon-phone" x="0" y="1333.752" width="19.969" height="20" style="fill:#ffffff"/><use xlink:href="#icon-phone" x="0" y="1363.752" width="19.969" height="20" style="fill:#000000"/><use xlink:href="#icon-phone" x="0" y="1393.752" width="19.969" height="20" style="fill:#343C88"/><use xlink:href="#icon-play" x="0" y="1423.752" width="31" height="31" style="fill:#F55D3E"/><use xlink:href="#icon-play" x="0" y="1464.752" width="31" height="31" style="fill:#ffffff"/><use xlink:href="#icon-play" x="0" y="1505.752" width="31" height="31" style="fill:#000000"/><use xlink:href="#icon-play" x="0" y="1546.752" width="31" height="31" style="fill:#343C88"/><use xlink:href="#icon-plus" x="0" y="1587.752" width="19" height="19" style="fill:#F55D3E"/><use xlink:href="#icon-plus" x="0" y="1616.752" width="19" height="19" style="fill:#ffffff"/><use xlink:href="#icon-plus" x="0" y="1645.752" width="19" height="19" style="fill:#000000"/><use xlink:href="#icon-plus" x="0" y="1674.752" width="19" height="19" style="fill:#343C88"/><use xlink:href="#icon-share" x="0" y="1703.752" width="20" height="21" style="fill:#F55D3E"/><use xlink:href="#icon-share" x="0" y="1734.752" width="20" height="21" style="fill:#ffffff"/><use xlink:href="#icon-share" x="0" y="1765.752" width="20" height="21" style="fill:#000000"/><use xlink:href="#icon-share" x="0" y="1796.752" width="20" height="21" style="fill:#343C88"/><use xlink:href="#icon-shield" x="0" y="1827.752" width="18" height="22" style="fill:#F55D3E"/><use xlink:href="#icon-shield" x="0" y="1859.752" width="18" height="22" style="fill:#ffffff"/><use xlink:href="#icon-shield" x="0" y="1891.752" width="18" height="22" style="fill:#000000"/><use xlink:href="#icon-shield" x="0" y="1923.752" width="18" height="22" style="fill:#343C88"/><use xlink:href="#icon-side" x="0" y="1955.752" width="5" height="21" style="fill:#F55D3E"/><use xlink:href="#icon-side" x="0" y="1986.752" width="5" height="21" style="fill:#ffffff"/><use xlink:href="#icon-side" x="0" y="2017.752" width="5" height="21" style="fill:#000000"/><use xlink:href="#icon-side" x="0" y="2048.752" width="5" height="21" style="fill:#343C88"/><use xlink:href="#icon-soc-fb" x="0" y="2079.752" width="32" height="32" style="fill:#F55D3E"/><use xlink:href="#icon-soc-fb" x="0" y="2121.752" width="32" height="32" style="fill:#ffffff"/><use xlink:href="#icon-soc-fb" x="0" y="2163.752" width="32" height="32" style="fill:#000000"/><use xlink:href="#icon-soc-fb" x="0" y="2205.752" width="32" height="32" style="fill:#343C88"/><use xlink:href="#icon-soc-inst" x="0" y="2247.752" width="32" height="32" style="fill:#F55D3E"/><use xlink:href="#icon-soc-inst" x="0" y="2289.752" width="32" height="32" style="fill:#ffffff"/><use xlink:href="#icon-soc-inst" x="0" y="2331.752" width="32" height="32" style="fill:#000000"/><use xlink:href="#icon-soc-inst" x="0" y="2373.752" width="32" height="32" style="fill:#343C88"/><use xlink:href="#icon-soc-phone" x="0" y="2415.752" width="18" height="18" style="fill:#F55D3E"/><use xlink:href="#icon-soc-phone" x="0" y="2443.752" width="18" height="18" style="fill:#ffffff"/><use xlink:href="#icon-soc-phone" x="0" y="2471.752" width="18" height="18" style="fill:#000000"/><use xlink:href="#icon-soc-phone" x="0" y="2499.752" width="18" height="18" style="fill:#343C88"/><use xlink:href="#icon-soc-tgm" x="0" y="2527.752" width="32" height="32" style="fill:#F55D3E"/><use xlink:href="#icon-soc-tgm" x="0" y="2569.752" width="32" height="32" style="fill:#ffffff"/><use xlink:href="#icon-soc-tgm" x="0" y="2611.752" width="32" height="32" style="fill:#000000"/><use xlink:href="#icon-soc-tgm" x="0" y="2653.752" width="32" height="32" style="fill:#343C88"/><use xlink:href="#icon-soc-wapp" x="0" y="2695.752" width="18" height="18" style="fill:#F55D3E"/><use xlink:href="#icon-soc-wapp" x="0" y="2723.752" width="18" height="18" style="fill:#ffffff"/><use xlink:href="#icon-soc-wapp" x="0" y="2751.752" width="18" height="18" style="fill:#000000"/><use xlink:href="#icon-soc-wapp" x="0" y="2779.752" width="18" height="18" style="fill:#343C88"/><use xlink:href="#icon-star-fill" x="0" y="2807.752" width="21" height="20" style="fill:#F55D3E"/><use xlink:href="#icon-star-fill" x="0" y="2837.752" width="21" height="20" style="fill:#ffffff"/><use xlink:href="#icon-star-fill" x="0" y="2867.752" width="21" height="20" style="fill:#000000"/><use xlink:href="#icon-star-fill" x="0" y="2897.752" width="21" height="20" style="fill:#343C88"/><use xlink:href="#icon-star" x="0" y="2927.752" width="21" height="20" style="fill:#F55D3E"/><use xlink:href="#icon-star" x="0" y="2957.752" width="21" height="20" style="fill:#ffffff"/><use xlink:href="#icon-star" x="0" y="2987.752" width="21" height="20" style="fill:#000000"/><use xlink:href="#icon-star" x="0" y="3017.752" width="21" height="20" style="fill:#343C88"/><use xlink:href="#icon-starry" x="0" y="3047.752" width="20" height="20" style="fill:#F55D3E"/><use xlink:href="#icon-starry" x="0" y="3077.752" width="20" height="20" style="fill:#ffffff"/><use xlink:href="#icon-starry" x="0" y="3107.752" width="20" height="20" style="fill:#000000"/><use xlink:href="#icon-starry" x="0" y="3137.752" width="20" height="20" style="fill:#343C88"/><use xlink:href="#icon-tgm" x="0" y="3167.752" width="18" height="16" style="fill:#F55D3E"/><use xlink:href="#icon-tgm" x="0" y="3193.752" width="18" height="16" style="fill:#ffffff"/><use xlink:href="#icon-tgm" x="0" y="3219.752" width="18" height="16" style="fill:#000000"/><use xlink:href="#icon-tgm" x="0" y="3245.752" width="18" height="16" style="fill:#343C88"/><use xlink:href="#icon-timer" x="0" y="3271.752" width="20" height="20" style="fill:#F55D3E"/><use xlink:href="#icon-timer" x="0" y="3301.752" width="20" height="20" style="fill:#ffffff"/><use xlink:href="#icon-timer" x="0" y="3331.752" width="20" height="20" style="fill:#000000"/><use xlink:href="#icon-timer" x="0" y="3361.752" width="20" height="20" style="fill:#343C88"/><use xlink:href="#icon-trade" x="0" y="3391.752" width="21" height="19" style="fill:#F55D3E"/><use xlink:href="#icon-trade" x="0" y="3420.752" width="21" height="19" style="fill:#ffffff"/><use xlink:href="#icon-trade" x="0" y="3449.752" width="21" height="19" style="fill:#000000"/><use xlink:href="#icon-trade" x="0" y="3478.752" width="21" height="19" style="fill:#343C88"/><use xlink:href="#icon-trash" x="0" y="3507.752" width="21" height="24" style="fill:#F55D3E"/><use xlink:href="#icon-trash" x="0" y="3541.752" width="21" height="24" style="fill:#ffffff"/><use xlink:href="#icon-trash" x="0" y="3575.752" width="21" height="24" style="fill:#000000"/><use xlink:href="#icon-trash" x="0" y="3609.752" width="21" height="24" style="fill:#343C88"/><use xlink:href="#icon-user" x="0" y="3643.752" width="18" height="20" style="fill:#F55D3E"/><use xlink:href="#icon-user" x="0" y="3673.752" width="18" height="20" style="fill:#ffffff"/><use xlink:href="#icon-user" x="0" y="3703.752" width="18" height="20" style="fill:#000000"/><use xlink:href="#icon-user" x="0" y="3733.752" width="18" height="20" style="fill:#343C88"/><use xlink:href="#icon-wallet" x="0" y="3763.752" width="19" height="18" style="fill:#F55D3E"/><use xlink:href="#icon-wallet" x="0" y="3791.752" width="19" height="18" style="fill:#ffffff"/><use xlink:href="#icon-wallet" x="0" y="3819.752" width="19" height="18" style="fill:#000000"/><use xlink:href="#icon-wallet" x="0" y="3847.752" width="19" height="18" style="fill:#343C88"/><use xlink:href="#icon-worker" x="0" y="3875.752" width="22" height="16" style="fill:#F55D3E"/><use xlink:href="#icon-worker" x="0" y="3901.752" width="22" height="16" style="fill:#ffffff"/><use xlink:href="#icon-worker" x="0" y="3927.752" width="22" height="16" style="fill:#000000"/><use xlink:href="#icon-worker" x="0" y="3953.752" width="22" height="16" style="fill:#343C88"/><use xlink:href="#icon-zoom" x="0" y="3979.752" width="20" height="20" style="fill:#F55D3E"/><use xlink:href="#icon-zoom" x="0" y="4009.752" width="20" height="20" style="fill:#ffffff"/><use xlink:href="#icon-zoom" x="0" y="4039.752" width="20" height="20" style="fill:#000000"/><use xlink:href="#icon-zoom" x="0" y="4069.752" width="20" height="20" style="fill:#343C88"/></svg>